# Blender v2.82 (sub 7) OBJ File: 'obstacle_slanted.blend'
# www.blender.org
mtllib obstacle_slanted.mtl
o Obstacle
v -0.017500 0.005000 -0.064800
v -0.017500 0.005000 -0.000000
v 0.017500 0.005000 -0.064800
v 0.017500 0.005000 -0.000000
v 0.017500 0.411547 -0.064800
v 0.017500 0.402649 -0.052587
v 0.017500 0.364333 0.000000
v 0.008167 0.364333 0.000000
v -0.011539 0.411547 -0.064800
v -0.017500 0.375817 -0.015761
v -0.017500 0.364333 0.000000
v -0.017500 0.411547 -0.064800
vt 0.270417 0.656812
vt 0.293750 0.656812
vt 0.293750 0.620548
vt 0.293750 0.612126
vt 0.221152 0.612126
vt 0.206250 0.612126
vt 0.206250 0.645943
vt 0.206250 0.656812
vt 0.000000 0.000000
vt 0.000000 0.000000
vt 0.000000 0.000000
vt 0.000000 0.000000
vt 0.000000 0.000000
vt 0.000000 0.000000
vt 0.000000 0.000000
vt 0.000000 0.000000
vt 0.000000 0.000000
vt 0.000000 0.000000
vt 0.000000 0.000000
vt 0.000000 0.000000
vn 0.0000 0.8082 0.5889
vn 0.0000 -1.0000 0.0000
vn 1.0000 0.0000 0.0000
vn -0.0000 -0.0000 1.0000
vn -0.0000 0.0000 -1.0000
vn -1.0000 0.0000 -0.0000
usemtl Material.001
s off
f 8/1/1 7/2/1 6/3/1 5/4/1 9/5/1 12/6/1 10/7/1 11/8/1
s 1
f 2/9/2 1/10/2 3/11/2
f 2/9/2 3/11/2 4/12/2
f 4/12/3 3/11/3 5/13/3 6/14/3
f 4/12/3 6/14/3 7/15/3
f 2/9/4 4/12/4 7/15/4 8/16/4
f 2/9/4 8/16/4 11/17/4
f 3/11/5 1/10/5 12/18/5 9/19/5
f 3/11/5 9/19/5 5/13/5
f 11/17/6 10/20/6 1/10/6 2/9/6
f 10/20/6 12/18/6 1/10/6
